# xmcd
#
# Track frame offsets: 
#        150
#        14676
#        30677
#        52036
#        71183
#        86364
#        102579
#        115904
#        123159
#        141070
#
# Disc length: 2132 seconds
#
# Revision: 0
# Processed by: cddbd v1.5.2PL0 Copyright (c) Steve Scherf et al.
# Submitted via: ExactAudioCopy v1.3
#
DISCID=8c08520a
DTITLE=Sean Poluk - Never Going to Lose
DYEAR=2019
DGENRE=Blues
TTITLE0=Never Going to Lose
TTITLE1=Little by Little
TTITLE2=Sometimes
TTITLE3=Ragged Blues
TTITLE4=Lord's Prayer Blues
TTITLE5=I Don't Mind
TTITLE6=Forever Is a Long Time
TTITLE7=Nina
TTITLE8=Waterloo Is the Last Stop
TTITLE9=Everybody Lies
EXTD=
EXTT0=
EXTT1=
EXTT2=
EXTT3=
EXTT4=
EXTT5=
EXTT6=
EXTT7=
EXTT8=
EXTT9=
PLAYORDER=
